<svg width="320" height="320" viewBox="0 0 320 320" xmlns="http://www.w3.org/2000/svg">
    <circle r="150" cx="160" cy="160" fill="#fff"/>
    <path style="fill:#0284c7" d="M131.6 247q-16.2 0-25.6-3-9.2-2.8-13.2-9.4Q89 228 89 217v-29.4Q89 170 66.4 170v-22q11.2 0 16.8-4.2 5.8-4.2 5.8-13.4V101q0-10.6 3.6-17.2 3.8-6.6 13-9.6 9.2-3.2 26-3.2v21.4q-8.2.2-12.8 3-4.6 2.6-4.6 10.8v29q0 20-20.4 23.2v1.2q20.4 3.2 20.4 22.8v29.2q0 8 4.2 10.8 4.4 2.8 13.2 3.2zm56.8-176q16.4 0 25.6 3 9.2 2.8 13 9.4 4 6.4 4 17.6v29.4q0 17.6 22.6 17.6v22q-11.2 0-17 4.2-5.6 4-5.6 13.4V217q0 10.6-3.6 17.2t-13 9.6q-9.2 3-26 3.2v-21.4q8.2-.4 12.8-3t4.6-10.8v-29q0-20 20.4-23.2v-1.2q-20.4-3.2-20.4-22.8v-29.2q0-8-4.4-10.8-4.2-3-13-3.2z"/>
</svg>
